# Blender 4.0.2
# www.blender.org
mtllib scale.mtl
o Sundial-Arrow.001
v 0.000000 -0.032649 1.000000
v 0.015000 -0.028242 1.000000
v 0.025950 -0.016325 1.000000
v 0.030000 -0.000000 1.000000
v 0.025950 0.016324 1.000000
v 0.015000 0.028241 1.000000
v 0.000000 0.032649 1.000000
v -0.015000 0.028241 1.000000
v -0.025950 0.016324 1.000000
v -0.030000 -0.000000 1.000000
v -0.025950 -0.016325 1.000000
v -0.015000 -0.028242 1.000000
v 0.000000 -0.032649 -0.000000
v 0.015000 -0.028241 -0.000000
v 0.025950 -0.016324 -0.000000
v 0.030000 0.000000 0.000000
v 0.025950 0.016324 0.000000
v 0.015000 0.028241 0.000000
v 0.000000 0.032649 0.000000
v -0.015000 0.028241 0.000000
v -0.025950 0.016324 0.000000
v -0.030000 0.000000 0.000000
v -0.025950 -0.016324 -0.000000
v -0.015000 -0.028241 -0.000000
v -0.075000 -0.075000 1.075000
v -0.075000 0.075000 1.075000
v -0.075000 -0.075000 0.925000
v -0.075000 0.075000 0.925000
v 0.075000 -0.075000 1.075000
v 0.075000 0.075000 1.075000
v 0.075000 -0.075000 0.925000
v 0.075000 0.075000 0.925000
vn 0.2819 -0.9594 -0.0000
vn 0.2508 -0.5483 0.7978
vn -0.0000 -0.6160 0.7878
vn 0.4849 -0.8746 -0.0000
vn 0.4914 -0.3450 0.7997
vn 0.8578 -0.5140 -0.0000
vn 0.6079 -0.0000 0.7940
vn 0.9706 0.2408 -0.0000
vn 0.5608 0.2127 0.8001
vn 0.9057 0.4240 -0.0000
vn 0.3871 0.4613 0.7984
vn 0.5788 0.8155 -0.0000
vn -0.0000 0.6160 0.7878
vn -0.2819 0.9594 -0.0000
vn -0.2507 0.5483 0.7978
vn -0.4849 0.8746 -0.0000
vn -0.4914 0.3450 0.7997
vn -0.8578 0.5140 -0.0000
vn -0.6079 -0.0000 0.7940
vn -0.9706 -0.2408 -0.0000
vn -0.5609 -0.2126 0.8001
vn -0.9057 -0.4240 -0.0000
vn -0.3871 -0.4613 0.7984
vn -0.5788 -0.8155 -0.0000
vn -1.0000 -0.0000 -0.0000
vn -0.0000 -0.0000 -1.0000
vn 1.0000 -0.0000 -0.0000
vn -0.0000 -0.0000 1.0000
vn -0.0000 -1.0000 -0.0000
vn -0.0000 1.0000 -0.0000
vn 0.9706 -0.2408 -0.0000
vn 0.2819 0.9594 -0.0000
vn -0.9706 0.2408 -0.0000
vn -0.2819 -0.9594 -0.0000
vt 0.000000 0.500000
vt 0.083333 1.000000
vt 0.000000 1.000000
vt 0.083333 0.500000
vt 0.166667 1.000000
vt 0.166667 0.500000
vt 0.250000 1.000000
vt 0.250000 0.500000
vt 0.333333 1.000000
vt 0.333333 0.500000
vt 0.416667 1.000000
vt 0.416667 0.500000
vt 0.500000 1.000000
vt 0.500000 0.500000
vt 0.583333 1.000000
vt 0.583333 0.500000
vt 0.666667 1.000000
vt 0.666667 0.500000
vt 0.750000 1.000000
vt 0.750000 0.500000
vt 0.833333 1.000000
vt 0.833333 0.500000
vt 0.916667 1.000000
vt 0.916667 0.500000
vt 1.000000 1.000000
vt 0.625000 0.000000
vt 0.375000 0.250000
vt 0.375000 0.000000
vt 0.625000 0.250000
vt 0.375000 0.500000
vt 0.625000 0.750000
vt 0.375000 0.750000
vt 0.375000 1.000000
vt 0.125000 0.750000
vt 0.125000 0.500000
vt 0.875000 0.500000
vt 0.625000 0.500000
vt 1.000000 0.500000
vt 0.625000 1.000000
vt 0.875000 0.750000
s 1
usemtl b0b0b0.002
f 13/1/1 2/2/2 1/3/3
f 14/4/4 3/5/5 2/2/2
f 15/6/6 4/7/7 3/5/5
f 16/8/8 5/9/9 4/7/7
f 17/10/10 6/11/11 5/9/9
f 18/12/12 7/13/13 6/11/11
f 19/14/14 8/15/15 7/13/13
f 20/16/16 9/17/17 8/15/15
f 21/18/18 10/19/19 9/17/17
f 22/20/20 11/21/21 10/19/19
f 23/22/22 12/23/23 11/21/21
f 24/24/24 1/25/3 12/23/23
f 10/19/19 11/21/21 4/7/7
f 26/26/25 27/27/25 25/28/25
f 28/29/26 31/30/26 27/27/26
f 31/30/27 30/31/27 29/32/27
f 30/31/28 25/33/28 29/32/28
f 31/30/29 25/34/29 27/35/29
f 28/36/30 30/31/30 32/37/30
f 13/1/1 14/4/4 2/2/2
f 14/4/4 15/6/6 3/5/5
f 15/6/6 16/8/31 4/7/7
f 16/8/8 17/10/10 5/9/9
f 17/10/10 18/12/12 6/11/11
f 18/12/12 19/14/32 7/13/13
f 19/14/14 20/16/16 8/15/15
f 20/16/16 21/18/18 9/17/17
f 21/18/18 22/20/33 10/19/19
f 22/20/20 23/22/22 11/21/21
f 23/22/22 24/24/24 12/23/23
f 24/24/24 13/38/34 1/25/3
f 12/23/23 1/25/3 2/2/2
f 2/2/2 3/5/5 12/23/23
f 3/5/5 4/7/7 11/21/21
f 12/23/23 3/5/5 11/21/21
f 4/7/7 5/9/9 9/17/17
f 5/9/9 6/11/11 8/15/15
f 6/11/11 7/13/13 8/15/15
f 8/15/15 9/17/17 5/9/9
f 9/17/17 10/19/19 4/7/7
f 26/26/25 28/29/25 27/27/25
f 28/29/26 32/37/26 31/30/26
f 31/30/27 32/37/27 30/31/27
f 30/31/28 26/39/28 25/33/28
f 31/30/29 29/32/29 25/34/29
f 28/36/30 26/40/30 30/31/30
