# Blender v3.0.0 OBJ File: 'untitled.blend'
# www.blender.org
mtllib cube.mtl
o Cube
v 1.000000 1.000000 -1.000000
v 1.000000 -1.000000 -1.000000
v 1.000000 1.000000 1.000000
v 1.000000 -1.000000 1.000000
v -1.000000 1.000000 -1.000000
v -1.000000 -1.000000 -1.000000
v -1.000000 1.000000 1.000000
v -1.000000 -1.000000 1.000000
vt 1.000000 0.000000
vt 0.666667 0.333333
vt 0.666667 0.000000
vt 0.666667 0.000000
vt 0.333333 0.333333
vt 0.333333 0.000000
vt 1.000000 0.333333
vt 0.666667 0.333333
vt 0.333333 0.333333
vt 0.000000 0.000000
vt 0.333333 0.000000
vt 0.333333 1.000000
vt 0.000000 0.666667
vt 0.333333 0.666667
vt 0.000000 0.333333
vt 0.000000 1.000000
vt 0.333333 0.666667
vt 0.000000 0.333333
vt 0.666667 0.666667
vt 0.333333 0.333333
vt 0.666667 0.333333
vt 0.000000 0.666667
vt 0.333333 0.666667
vn 0.0000 1.0000 0.0000
vn 0.0000 -1.0000 0.0000
vn 0.0000 0.0000 1.0000
vn 0.0000 0.0000 -1.0000
vn -1.0000 0.0000 0.0000
vn 1.0000 0.0000 0.0000
usemtl 材质.001
s off
f 5/1/1 3/2/1 1/3/1
f 2/4/2 8/5/2 6/6/2
f 5/1/1 7/7/1 3/2/1
f 2/4/2 4/8/2 8/5/2
usemtl Material
f 3/9/3 8/10/3 4/11/3
f 5/12/4 2/13/4 6/14/4
f 3/9/3 7/15/3 8/10/3
f 5/12/4 1/16/4 2/13/4
usemtl 材质
f 7/17/5 6/18/5 8/5/5
f 1/19/6 4/20/6 2/21/6
f 7/17/5 5/22/5 6/18/5
f 1/19/6 3/23/6 4/20/6
